<svg width="17" height="17" viewBox="0 0 17 17" fill="none" xmlns="http://www.w3.org/2000/svg">
<path d="M2.83337 3.54163H11.3334" stroke="#D9D9D9" stroke-linecap="round"/>
<path d="M2.83337 8.5H7.08337" stroke="#D9D9D9" stroke-linecap="round"/>
<path d="M9.91663 8.5H14.1666" stroke="#D9D9D9" stroke-linecap="round"/>
<path d="M5.66663 13.4584H14.1666" stroke="#D9D9D9" stroke-linecap="round"/>
<path d="M12.75 4.95833C13.5324 4.95833 14.1667 4.32407 14.1667 3.54167C14.1667 2.75926 13.5324 2.125 12.75 2.125C11.9676 2.125 11.3334 2.75926 11.3334 3.54167C11.3334 4.32407 11.9676 4.95833 12.75 4.95833Z" stroke="#D9D9D9" stroke-linecap="round"/>
<path d="M8.50004 9.91671C9.28244 9.91671 9.91671 9.28244 9.91671 8.50004C9.91671 7.71764 9.28244 7.08337 8.50004 7.08337C7.71764 7.08337 7.08337 7.71764 7.08337 8.50004C7.08337 9.28244 7.71764 9.91671 8.50004 9.91671Z" stroke="#D9D9D9" stroke-linecap="round"/>
<path d="M4.25004 14.875C5.03244 14.875 5.66671 14.2407 5.66671 13.4583C5.66671 12.6759 5.03244 12.0416 4.25004 12.0416C3.46764 12.0416 2.83337 12.6759 2.83337 13.4583C2.83337 14.2407 3.46764 14.875 4.25004 14.875Z" stroke="#D9D9D9" stroke-linecap="round"/>
</svg>
